<?xml version="1.0" encoding="UTF-8"?>
<svg xmlns="http://www.w3.org/2000/svg"
     xmlns:xlink="http://www.w3.org/1999/xlink"
     version="1.2"
     width="913.75mm" height="56.25mm" viewBox="0 0 913.75 56.25"
     stroke="none"
     fill="#000000"
     stroke-width="0.3"
     font-size="3.88"
>
<defs>
  <marker id="arrow" markerWidth="15" markerHeight="7" refX="5" refY="3.5" orient="auto" markerUnits="strokeWidth">
    <path d="M0,0 L15,3.5 L0,7 z" stroke="context-stroke" fill="context-stroke"/>
  </marker>
</defs>
<g stroke-width="0.35" stroke="#000000" id="img-a1406fe2-1">
  <g transform="translate(809.38,43.75)">
    <path fill="none" d="M95.62,0 L-95.62,0 " class="primitive"/>
  </g>
</g>
<g stroke-width="0.35" stroke="#000000" id="img-a1406fe2-2">
  <g transform="translate(894.38,25)">
    <path fill="none" d="M10.62,0 L-10.62,0 " class="primitive"/>
  </g>
</g>
<g stroke-width="0.35" stroke="#000000" id="img-a1406fe2-3">
  <g transform="translate(894.38,6.25)">
    <path fill="none" d="M10.62,0 L-10.62,0 " class="primitive"/>
  </g>
</g>
<g stroke-width="0.35" stroke="#000000" id="img-a1406fe2-4">
  <g transform="translate(873.13,25)">
    <path fill="none" d="M10.62,0 L-10.62,0 " class="primitive"/>
  </g>
</g>
<g stroke-width="0.35" stroke="#000000" id="img-a1406fe2-5">
  <g transform="translate(873.13,6.25)">
    <path fill="none" d="M10.62,0 L-10.62,0 " class="primitive"/>
  </g>
</g>
<g stroke-width="0.35" stroke="#000000" id="img-a1406fe2-6">
  <g transform="translate(851.88,25)">
    <path fill="none" d="M10.62,0 L-10.62,0 " class="primitive"/>
  </g>
</g>
<g stroke-width="0.35" stroke="#000000" id="img-a1406fe2-7">
  <g transform="translate(851.88,6.25)">
    <path fill="none" d="M10.62,0 L-10.62,0 " class="primitive"/>
  </g>
</g>
<g stroke-width="0.35" stroke="#000000" id="img-a1406fe2-8">
  <g transform="translate(862.5,15.62)">
    <path fill="none" d="M0,9.38 L0,-9.38 " class="primitive"/>
  </g>
</g>
<g stroke-width="0.35" stroke="#000000" id="img-a1406fe2-9">
  <g transform="translate(830.62,25)">
    <path fill="none" d="M10.63,0 L-10.62,0 " class="primitive"/>
  </g>
</g>
<g stroke-width="0.35" stroke="#000000" id="img-a1406fe2-10">
  <g transform="translate(830.62,6.25)">
    <path fill="none" d="M10.63,0 L-10.62,0 " class="primitive"/>
  </g>
</g>
<g stroke-width="0.35" stroke="#000000" id="img-a1406fe2-11">
  <g transform="translate(788.12,25)">
    <path fill="none" d="M31.88,0 L-31.87,0 " class="primitive"/>
  </g>
</g>
<g stroke-width="0.35" stroke="#000000" id="img-a1406fe2-12">
  <g transform="translate(809.38,6.25)">
    <path fill="none" d="M10.62,0 L-10.62,0 " class="primitive"/>
  </g>
</g>
<g stroke-width="0.35" stroke="#000000" id="img-a1406fe2-13">
  <g transform="translate(820,15.62)">
    <path fill="none" d="M0,9.38 L0,-9.38 " class="primitive"/>
  </g>
</g>
<g stroke-width="0.35" stroke="#000000" id="img-a1406fe2-14">
  <g transform="translate(788.12,6.25)">
    <path fill="none" d="M10.63,0 L-10.62,0 " class="primitive"/>
  </g>
</g>
<g stroke-width="0.35" stroke="#000000" id="img-a1406fe2-15">
  <g transform="translate(745.63,25)">
    <path fill="none" d="M10.62,0 L-10.62,0 " class="primitive"/>
  </g>
</g>
<g stroke-width="0.35" stroke="#000000" id="img-a1406fe2-16">
  <g transform="translate(766.88,6.25)">
    <path fill="none" d="M10.62,0 L-10.62,0 " class="primitive"/>
  </g>
</g>
<g stroke-width="0.35" stroke="#000000" id="img-a1406fe2-17">
  <g transform="translate(745.63,6.25)">
    <path fill="none" d="M10.62,0 L-10.62,0 " class="primitive"/>
  </g>
</g>
<g stroke-width="0.35" stroke="#000000" id="img-a1406fe2-18">
  <g transform="translate(724.38,25)">
    <path fill="none" d="M10.62,0 L-10.62,0 " class="primitive"/>
  </g>
</g>
<g stroke-width="0.35" stroke="#000000" id="img-a1406fe2-19">
  <g transform="translate(639.38,6.25)">
    <path fill="none" d="M95.62,0 L-95.62,0 " class="primitive"/>
  </g>
</g>
<g stroke-width="0.35" stroke="#000000" id="img-a1406fe2-20">
  <g transform="translate(735,15.62)">
    <path fill="none" d="M0,9.38 L0,-9.38 " class="primitive"/>
  </g>
</g>
<g stroke-width="0.35" stroke="#000000" id="img-a1406fe2-21">
  <g transform="translate(703.13,43.75)">
    <path fill="none" d="M10.62,0 L-10.62,0 " class="primitive"/>
  </g>
</g>
<g stroke-width="0.35" stroke="#000000" id="img-a1406fe2-22">
  <g transform="translate(703.13,25)">
    <path fill="none" d="M10.62,0 L-10.62,0 " class="primitive"/>
  </g>
</g>
<g stroke-width="0.35" stroke="#000000" id="img-a1406fe2-23">
  <g transform="translate(681.88,43.75)">
    <path fill="none" d="M10.63,0 L-10.62,0 " class="primitive"/>
  </g>
</g>
<g stroke-width="0.35" stroke="#000000" id="img-a1406fe2-24">
  <g transform="translate(681.88,25)">
    <path fill="none" d="M10.63,0 L-10.62,0 " class="primitive"/>
  </g>
</g>
<g stroke-width="0.35" stroke="#000000" id="img-a1406fe2-25">
  <g transform="translate(692.5,34.38)">
    <path fill="none" d="M0,9.38 L0,-9.38 " class="primitive"/>
  </g>
</g>
<g stroke-width="0.35" stroke="#000000" id="img-a1406fe2-26">
  <g transform="translate(660.62,43.75)">
    <path fill="none" d="M10.62,0 L-10.62,0 " class="primitive"/>
  </g>
</g>
<g stroke-width="0.35" stroke="#000000" id="img-a1406fe2-27">
  <g transform="translate(660.62,25)">
    <path fill="none" d="M10.62,0 L-10.62,0 " class="primitive"/>
  </g>
</g>
<g stroke-width="0.35" stroke="#000000" id="img-a1406fe2-28">
  <g transform="translate(618.13,43.75)">
    <path fill="none" d="M31.88,0 L-31.88,0 " class="primitive"/>
  </g>
</g>
<g stroke-width="0.35" stroke="#000000" id="img-a1406fe2-29">
  <g transform="translate(639.38,25)">
    <path fill="none" d="M10.63,0 L-10.62,0 " class="primitive"/>
  </g>
</g>
<g stroke-width="0.35" stroke="#000000" id="img-a1406fe2-30">
  <g transform="translate(650,34.38)">
    <path fill="none" d="M0,9.38 L0,-9.38 " class="primitive"/>
  </g>
</g>
<g stroke-width="0.35" stroke="#000000" id="img-a1406fe2-31">
  <g transform="translate(618.12,25)">
    <path fill="none" d="M10.62,0 L-10.62,0 " class="primitive"/>
  </g>
</g>
<g stroke-width="0.35" stroke="#000000" id="img-a1406fe2-32">
  <g transform="translate(575.62,43.75)">
    <path fill="none" d="M10.63,0 L-10.62,0 " class="primitive"/>
  </g>
</g>
<g stroke-width="0.35" stroke="#000000" id="img-a1406fe2-33">
  <g transform="translate(596.88,25)">
    <path fill="none" d="M10.62,0 L-10.62,0 " class="primitive"/>
  </g>
</g>
<g stroke-width="0.35" stroke="#000000" id="img-a1406fe2-34">
  <g transform="translate(575.62,25)">
    <path fill="none" d="M10.63,0 L-10.62,0 " class="primitive"/>
  </g>
</g>
<g stroke-width="0.35" stroke="#000000" id="img-a1406fe2-35">
  <g transform="translate(469.38,43.75)">
    <path fill="none" d="M95.62,0 L-95.62,0 " class="primitive"/>
  </g>
</g>
<g stroke-width="0.35" stroke="#000000" id="img-a1406fe2-36">
  <g transform="translate(554.38,25)">
    <path fill="none" d="M10.62,0 L-10.62,0 " class="primitive"/>
  </g>
</g>
<g stroke-width="0.35" stroke="#000000" id="img-a1406fe2-37">
  <g transform="translate(565,34.38)">
    <path fill="none" d="M0,9.38 L0,-9.38 " class="primitive"/>
  </g>
</g>
<g stroke-width="0.35" stroke="#000000" id="img-a1406fe2-38">
  <g transform="translate(533.13,25)">
    <path fill="none" d="M10.62,0 L-10.62,0 " class="primitive"/>
  </g>
</g>
<g stroke-width="0.35" stroke="#000000" id="img-a1406fe2-39">
  <g transform="translate(533.13,6.25)">
    <path fill="none" d="M10.62,0 L-10.62,0 " class="primitive"/>
  </g>
</g>
<g stroke-width="0.35" stroke="#000000" id="img-a1406fe2-40">
  <g transform="translate(511.88,25)">
    <path fill="none" d="M10.62,0 L-10.62,0 " class="primitive"/>
  </g>
</g>
<g stroke-width="0.35" stroke="#000000" id="img-a1406fe2-41">
  <g transform="translate(511.88,6.25)">
    <path fill="none" d="M10.62,0 L-10.62,0 " class="primitive"/>
  </g>
</g>
<g stroke-width="0.35" stroke="#000000" id="img-a1406fe2-42">
  <g transform="translate(522.5,15.62)">
    <path fill="none" d="M0,9.38 L0,-9.38 " class="primitive"/>
  </g>
</g>
<g stroke-width="0.35" stroke="#000000" id="img-a1406fe2-43">
  <g transform="translate(490.63,25)">
    <path fill="none" d="M10.62,0 L-10.63,0 " class="primitive"/>
  </g>
</g>
<g stroke-width="0.35" stroke="#000000" id="img-a1406fe2-44">
  <g transform="translate(490.63,6.25)">
    <path fill="none" d="M10.62,0 L-10.63,0 " class="primitive"/>
  </g>
</g>
<g stroke-width="0.35" stroke="#000000" id="img-a1406fe2-45">
  <g transform="translate(448.12,25)">
    <path fill="none" d="M31.88,0 L-31.88,0 " class="primitive"/>
  </g>
</g>
<g stroke-width="0.35" stroke="#000000" id="img-a1406fe2-46">
  <g transform="translate(469.38,6.25)">
    <path fill="none" d="M10.63,0 L-10.62,0 " class="primitive"/>
  </g>
</g>
<g stroke-width="0.35" stroke="#000000" id="img-a1406fe2-47">
  <g transform="translate(480,15.62)">
    <path fill="none" d="M0,9.38 L0,-9.38 " class="primitive"/>
  </g>
</g>
<g stroke-width="0.35" stroke="#000000" id="img-a1406fe2-48">
  <g transform="translate(448.12,6.25)">
    <path fill="none" d="M10.62,0 L-10.62,0 " class="primitive"/>
  </g>
</g>
<g stroke-width="0.35" stroke="#000000" id="img-a1406fe2-49">
  <g transform="translate(405.62,25)">
    <path fill="none" d="M10.62,0 L-10.62,0 " class="primitive"/>
  </g>
</g>
<g stroke-width="0.35" stroke="#000000" id="img-a1406fe2-50">
  <g transform="translate(426.88,6.25)">
    <path fill="none" d="M10.63,0 L-10.62,0 " class="primitive"/>
  </g>
</g>
<g stroke-width="0.35" stroke="#000000" id="img-a1406fe2-51">
  <g transform="translate(405.62,6.25)">
    <path fill="none" d="M10.62,0 L-10.62,0 " class="primitive"/>
  </g>
</g>
<g stroke-width="0.35" stroke="#000000" id="img-a1406fe2-52">
  <g transform="translate(384.38,25)">
    <path fill="none" d="M10.62,0 L-10.62,0 " class="primitive"/>
  </g>
</g>
<g stroke-width="0.35" stroke="#000000" id="img-a1406fe2-53">
  <g transform="translate(299.38,6.25)">
    <path fill="none" d="M95.62,0 L-95.62,0 " class="primitive"/>
  </g>
</g>
<g stroke-width="0.35" stroke="#000000" id="img-a1406fe2-54">
  <g transform="translate(395,15.62)">
    <path fill="none" d="M0,9.38 L0,-9.38 " class="primitive"/>
  </g>
</g>
<g stroke-width="0.35" stroke="#000000" id="img-a1406fe2-55">
  <g transform="translate(363.13,43.75)">
    <path fill="none" d="M10.62,0 L-10.62,0 " class="primitive"/>
  </g>
</g>
<g stroke-width="0.35" stroke="#000000" id="img-a1406fe2-56">
  <g transform="translate(363.13,25)">
    <path fill="none" d="M10.62,0 L-10.62,0 " class="primitive"/>
  </g>
</g>
<g stroke-width="0.35" stroke="#000000" id="img-a1406fe2-57">
  <g transform="translate(341.88,43.75)">
    <path fill="none" d="M10.62,0 L-10.62,0 " class="primitive"/>
  </g>
</g>
<g stroke-width="0.35" stroke="#000000" id="img-a1406fe2-58">
  <g transform="translate(341.88,25)">
    <path fill="none" d="M10.62,0 L-10.62,0 " class="primitive"/>
  </g>
</g>
<g stroke-width="0.35" stroke="#000000" id="img-a1406fe2-59">
  <g transform="translate(352.5,34.38)">
    <path fill="none" d="M0,9.38 L0,-9.38 " class="primitive"/>
  </g>
</g>
<g stroke-width="0.35" stroke="#000000" id="img-a1406fe2-60">
  <g transform="translate(320.63,43.75)">
    <path fill="none" d="M10.62,0 L-10.62,0 " class="primitive"/>
  </g>
</g>
<g stroke-width="0.35" stroke="#000000" id="img-a1406fe2-61">
  <g transform="translate(320.63,25)">
    <path fill="none" d="M10.62,0 L-10.62,0 " class="primitive"/>
  </g>
</g>
<g stroke-width="0.35" stroke="#000000" id="img-a1406fe2-62">
  <g transform="translate(278.13,43.75)">
    <path fill="none" d="M31.88,0 L-31.88,0 " class="primitive"/>
  </g>
</g>
<g stroke-width="0.35" stroke="#000000" id="img-a1406fe2-63">
  <g transform="translate(299.38,25)">
    <path fill="none" d="M10.63,0 L-10.62,0 " class="primitive"/>
  </g>
</g>
<g stroke-width="0.35" stroke="#000000" id="img-a1406fe2-64">
  <g transform="translate(310,34.38)">
    <path fill="none" d="M0,9.38 L0,-9.38 " class="primitive"/>
  </g>
</g>
<g stroke-width="0.35" stroke="#000000" id="img-a1406fe2-65">
  <g transform="translate(278.12,25)">
    <path fill="none" d="M10.62,0 L-10.62,0 " class="primitive"/>
  </g>
</g>
<g stroke-width="0.35" stroke="#000000" id="img-a1406fe2-66">
  <g transform="translate(235.63,43.75)">
    <path fill="none" d="M10.62,0 L-10.62,0 " class="primitive"/>
  </g>
</g>
<g stroke-width="0.35" stroke="#000000" id="img-a1406fe2-67">
  <g transform="translate(256.88,25)">
    <path fill="none" d="M10.62,0 L-10.63,0 " class="primitive"/>
  </g>
</g>
<g stroke-width="0.35" stroke="#000000" id="img-a1406fe2-68">
  <g transform="translate(235.63,25)">
    <path fill="none" d="M10.62,0 L-10.62,0 " class="primitive"/>
  </g>
</g>
<g stroke-width="0.35" stroke="#000000" id="img-a1406fe2-69">
  <g transform="translate(118.75,43.75)">
    <path fill="none" d="M106.25,0 L-106.25,0 " class="primitive"/>
  </g>
</g>
<g stroke-width="0.35" stroke="#000000" id="img-a1406fe2-70">
  <g transform="translate(214.38,25)">
    <path fill="none" d="M10.63,0 L-10.62,0 " class="primitive"/>
  </g>
</g>
<g stroke-width="0.35" stroke="#000000" id="img-a1406fe2-71">
  <g transform="translate(225,34.38)">
    <path fill="none" d="M0,9.38 L0,-9.38 " class="primitive"/>
  </g>
</g>
<g stroke-width="0.35" stroke="#000000" id="img-a1406fe2-72">
  <g transform="translate(193.12,25)">
    <path fill="none" d="M10.62,0 L-10.62,0 " class="primitive"/>
  </g>
</g>
<g stroke-width="0.35" stroke="#000000" id="img-a1406fe2-73">
  <g transform="translate(193.12,6.25)">
    <path fill="none" d="M10.62,0 L-10.62,0 " class="primitive"/>
  </g>
</g>
<g stroke-width="0.35" stroke="#000000" id="img-a1406fe2-74">
  <g transform="translate(171.88,25)">
    <path fill="none" d="M10.62,0 L-10.62,0 " class="primitive"/>
  </g>
</g>
<g stroke-width="0.35" stroke="#000000" id="img-a1406fe2-75">
  <g transform="translate(171.88,6.25)">
    <path fill="none" d="M10.62,0 L-10.62,0 " class="primitive"/>
  </g>
</g>
<g stroke-width="0.35" stroke="#000000" id="img-a1406fe2-76">
  <g transform="translate(182.5,15.62)">
    <path fill="none" d="M0,9.38 L0,-9.38 " class="primitive"/>
  </g>
</g>
<g stroke-width="0.35" stroke="#000000" id="img-a1406fe2-77">
  <g transform="translate(150.63,25)">
    <path fill="none" d="M10.62,0 L-10.62,0 " class="primitive"/>
  </g>
</g>
<g stroke-width="0.35" stroke="#000000" id="img-a1406fe2-78">
  <g transform="translate(150.63,6.25)">
    <path fill="none" d="M10.62,0 L-10.62,0 " class="primitive"/>
  </g>
</g>
<g stroke-width="0.35" stroke="#000000" id="img-a1406fe2-79">
  <g transform="translate(108.13,25)">
    <path fill="none" d="M31.88,0 L-31.88,0 " class="primitive"/>
  </g>
</g>
<g stroke-width="0.35" stroke="#000000" id="img-a1406fe2-80">
  <g transform="translate(129.38,6.25)">
    <path fill="none" d="M10.62,0 L-10.63,0 " class="primitive"/>
  </g>
</g>
<g stroke-width="0.35" stroke="#000000" id="img-a1406fe2-81">
  <g transform="translate(140,15.62)">
    <path fill="none" d="M0,9.38 L0,-9.38 " class="primitive"/>
  </g>
</g>
<g stroke-width="0.35" stroke="#000000" id="img-a1406fe2-82">
  <g transform="translate(108.13,6.25)">
    <path fill="none" d="M10.62,0 L-10.62,0 " class="primitive"/>
  </g>
</g>
<g stroke-width="0.35" stroke="#000000" id="img-a1406fe2-83">
  <g transform="translate(65.63,25)">
    <path fill="none" d="M10.62,0 L-10.63,0 " class="primitive"/>
  </g>
</g>
<g stroke-width="0.35" stroke="#000000" id="img-a1406fe2-84">
  <g transform="translate(86.88,6.25)">
    <path fill="none" d="M10.62,0 L-10.62,0 " class="primitive"/>
  </g>
</g>
<g stroke-width="0.35" stroke="#000000" id="img-a1406fe2-85">
  <g transform="translate(65.63,6.25)">
    <path fill="none" d="M10.62,0 L-10.63,0 " class="primitive"/>
  </g>
</g>
<g stroke-width="0.35" stroke="#000000" id="img-a1406fe2-86">
  <g transform="translate(44.38,25)">
    <path fill="none" d="M10.62,0 L-10.62,0 " class="primitive"/>
  </g>
</g>
<g stroke-width="0.35" stroke="#000000" id="img-a1406fe2-87">
  <g transform="translate(44.38,6.25)">
    <path fill="none" d="M10.62,0 L-10.62,0 " class="primitive"/>
  </g>
</g>
<g stroke-width="0.35" stroke="#000000" id="img-a1406fe2-88">
  <g transform="translate(55,15.62)">
    <path fill="none" d="M0,9.38 L0,-9.38 " class="primitive"/>
  </g>
</g>
<g stroke-width="0.35" stroke="#000000" id="img-a1406fe2-89">
  <g transform="translate(23.13,25)">
    <path fill="none" d="M10.63,0 L-10.63,0 " class="primitive"/>
  </g>
</g>
<g stroke-width="0.35" stroke="#000000" id="img-a1406fe2-90">
  <g transform="translate(23.13,6.25)">
    <path fill="none" d="M10.63,0 L-10.63,0 " class="primitive"/>
  </g>
</g>
<g stroke-width="0.35" stroke="#000000" fill="#FFFFFF" id="img-a1406fe2-91">
  <g transform="translate(883.75,25)">
    <path d="M-7.5,-5 L7.5,-5 7.5,5 -7.5,5  z" class="primitive"/>
  </g>
</g>
<g stroke-width="0.35" stroke="#000000" fill="#FFFFFF" id="img-a1406fe2-92">
  <g transform="translate(883.75,6.25)">
    <path d="M-7.5,-5 L7.5,-5 7.5,5 -7.5,5  z" class="primitive"/>
  </g>
</g>
<g stroke-width="0.35" stroke="#000000" id="img-a1406fe2-93">
  <g transform="translate(862.5,25)">
    <path d="M0,-5 L0,5  z" class="primitive"/>
  </g>
</g>
<g stroke-width="0.35" stroke="#000000" id="img-a1406fe2-94">
  <g transform="translate(862.5,25)">
    <path d="M-5,0 L5,0  z" class="primitive"/>
  </g>
</g>
<g fill="#000000" fill-opacity="0.000" stroke-width="0.35" stroke="#000000" id="img-a1406fe2-95">
  <g transform="translate(862.5,25)">
    <circle cx="0" cy="0" r="5" class="primitive"/>
  </g>
</g>
<g stroke-width="0" fill="#000000" id="img-a1406fe2-96">
  <g transform="translate(862.5,6.25)">
    <circle cx="0" cy="0" r="1.67" class="primitive"/>
  </g>
</g>
<g stroke-width="0.35" stroke="#000000" fill="#FFFFFF" id="img-a1406fe2-97">
  <g transform="translate(841.25,25)">
    <path d="M-7.5,-5 L7.5,-5 7.5,5 -7.5,5  z" class="primitive"/>
  </g>
</g>
<g stroke-width="0.35" stroke="#000000" fill="#FFFFFF" id="img-a1406fe2-98">
  <g transform="translate(841.25,6.25)">
    <path d="M-5,-5 L5,-5 5,5 -5,5  z" class="primitive"/>
  </g>
</g>
<g stroke-width="0.35" stroke="#000000" id="img-a1406fe2-99">
  <g transform="translate(820,25)">
    <path d="M0,-5 L0,5  z" class="primitive"/>
  </g>
</g>
<g stroke-width="0.35" stroke="#000000" id="img-a1406fe2-100">
  <g transform="translate(820,25)">
    <path d="M-5,0 L5,0  z" class="primitive"/>
  </g>
</g>
<g fill="#000000" fill-opacity="0.000" stroke-width="0.35" stroke="#000000" id="img-a1406fe2-101">
  <g transform="translate(820,25)">
    <circle cx="0" cy="0" r="5" class="primitive"/>
  </g>
</g>
<g stroke-width="0" fill="#000000" id="img-a1406fe2-102">
  <g transform="translate(820,6.25)">
    <circle cx="0" cy="0" r="1.67" class="primitive"/>
  </g>
</g>
<g stroke-width="0.35" stroke="#000000" fill="#FFFFFF" id="img-a1406fe2-103">
  <g transform="translate(798.75,6.25)">
    <path d="M-5,-5 L5,-5 5,5 -5,5  z" class="primitive"/>
  </g>
</g>
<g stroke-width="0.35" stroke="#000000" fill="#FFFFFF" id="img-a1406fe2-104">
  <g transform="translate(756.25,25)">
    <path d="M-7.5,-5 L7.5,-5 7.5,5 -7.5,5  z" class="primitive"/>
  </g>
</g>
<g stroke-width="0.35" stroke="#000000" fill="#FFFFFF" id="img-a1406fe2-105">
  <g transform="translate(777.5,6.25)">
    <path d="M-7.5,-5 L7.5,-5 7.5,5 -7.5,5  z" class="primitive"/>
  </g>
</g>
<g stroke-width="0.35" stroke="#000000" fill="#FFFFFF" id="img-a1406fe2-106">
  <g transform="translate(756.25,6.25)">
    <path d="M-7.5,-5 L7.5,-5 7.5,5 -7.5,5  z" class="primitive"/>
  </g>
</g>
<g stroke-width="0.35" stroke="#000000" id="img-a1406fe2-107">
  <g transform="translate(735,25)">
    <path d="M0,-5 L0,5  z" class="primitive"/>
  </g>
</g>
<g stroke-width="0.35" stroke="#000000" id="img-a1406fe2-108">
  <g transform="translate(735,25)">
    <path d="M-5,0 L5,0  z" class="primitive"/>
  </g>
</g>
<g fill="#000000" fill-opacity="0.000" stroke-width="0.35" stroke="#000000" id="img-a1406fe2-109">
  <g transform="translate(735,25)">
    <circle cx="0" cy="0" r="5" class="primitive"/>
  </g>
</g>
<g stroke-width="0" fill="#000000" id="img-a1406fe2-110">
  <g transform="translate(735,6.25)">
    <circle cx="0" cy="0" r="1.67" class="primitive"/>
  </g>
</g>
<g stroke-width="0.35" stroke="#000000" fill="#FFFFFF" id="img-a1406fe2-111">
  <g transform="translate(713.75,43.75)">
    <path d="M-7.5,-5 L7.5,-5 7.5,5 -7.5,5  z" class="primitive"/>
  </g>
</g>
<g stroke-width="0.35" stroke="#000000" fill="#FFFFFF" id="img-a1406fe2-112">
  <g transform="translate(713.75,25)">
    <path d="M-7.5,-5 L7.5,-5 7.5,5 -7.5,5  z" class="primitive"/>
  </g>
</g>
<g stroke-width="0.35" stroke="#000000" id="img-a1406fe2-113">
  <g transform="translate(692.5,43.75)">
    <path d="M0,-5 L0,5  z" class="primitive"/>
  </g>
</g>
<g stroke-width="0.35" stroke="#000000" id="img-a1406fe2-114">
  <g transform="translate(692.5,43.75)">
    <path d="M-5,0 L5,0  z" class="primitive"/>
  </g>
</g>
<g fill="#000000" fill-opacity="0.000" stroke-width="0.35" stroke="#000000" id="img-a1406fe2-115">
  <g transform="translate(692.5,43.75)">
    <circle cx="0" cy="0" r="5" class="primitive"/>
  </g>
</g>
<g stroke-width="0" fill="#000000" id="img-a1406fe2-116">
  <g transform="translate(692.5,25)">
    <circle cx="0" cy="0" r="1.67" class="primitive"/>
  </g>
</g>
<g stroke-width="0.35" stroke="#000000" fill="#FFFFFF" id="img-a1406fe2-117">
  <g transform="translate(671.25,43.75)">
    <path d="M-7.5,-5 L7.5,-5 7.5,5 -7.5,5  z" class="primitive"/>
  </g>
</g>
<g stroke-width="0.35" stroke="#000000" fill="#FFFFFF" id="img-a1406fe2-118">
  <g transform="translate(671.25,25)">
    <path d="M-5,-5 L5,-5 5,5 -5,5  z" class="primitive"/>
  </g>
</g>
<g stroke-width="0.35" stroke="#000000" id="img-a1406fe2-119">
  <g transform="translate(650,43.75)">
    <path d="M0,-5 L0,5  z" class="primitive"/>
  </g>
</g>
<g stroke-width="0.35" stroke="#000000" id="img-a1406fe2-120">
  <g transform="translate(650,43.75)">
    <path d="M-5,0 L5,0  z" class="primitive"/>
  </g>
</g>
<g fill="#000000" fill-opacity="0.000" stroke-width="0.35" stroke="#000000" id="img-a1406fe2-121">
  <g transform="translate(650,43.75)">
    <circle cx="0" cy="0" r="5" class="primitive"/>
  </g>
</g>
<g stroke-width="0" fill="#000000" id="img-a1406fe2-122">
  <g transform="translate(650,25)">
    <circle cx="0" cy="0" r="1.67" class="primitive"/>
  </g>
</g>
<g stroke-width="0.35" stroke="#000000" fill="#FFFFFF" id="img-a1406fe2-123">
  <g transform="translate(628.75,25)">
    <path d="M-5,-5 L5,-5 5,5 -5,5  z" class="primitive"/>
  </g>
</g>
<g stroke-width="0.35" stroke="#000000" fill="#FFFFFF" id="img-a1406fe2-124">
  <g transform="translate(586.25,43.75)">
    <path d="M-7.5,-5 L7.5,-5 7.5,5 -7.5,5  z" class="primitive"/>
  </g>
</g>
<g stroke-width="0.35" stroke="#000000" fill="#FFFFFF" id="img-a1406fe2-125">
  <g transform="translate(607.5,25)">
    <path d="M-7.5,-5 L7.5,-5 7.5,5 -7.5,5  z" class="primitive"/>
  </g>
</g>
<g stroke-width="0.35" stroke="#000000" fill="#FFFFFF" id="img-a1406fe2-126">
  <g transform="translate(586.25,25)">
    <path d="M-7.5,-5 L7.5,-5 7.5,5 -7.5,5  z" class="primitive"/>
  </g>
</g>
<g stroke-width="0.35" stroke="#000000" id="img-a1406fe2-127">
  <g transform="translate(565,43.75)">
    <path d="M0,-5 L0,5  z" class="primitive"/>
  </g>
</g>
<g stroke-width="0.35" stroke="#000000" id="img-a1406fe2-128">
  <g transform="translate(565,43.75)">
    <path d="M-5,0 L5,0  z" class="primitive"/>
  </g>
</g>
<g fill="#000000" fill-opacity="0.000" stroke-width="0.35" stroke="#000000" id="img-a1406fe2-129">
  <g transform="translate(565,43.75)">
    <circle cx="0" cy="0" r="5" class="primitive"/>
  </g>
</g>
<g stroke-width="0" fill="#000000" id="img-a1406fe2-130">
  <g transform="translate(565,25)">
    <circle cx="0" cy="0" r="1.67" class="primitive"/>
  </g>
</g>
<g stroke-width="0.35" stroke="#000000" fill="#FFFFFF" id="img-a1406fe2-131">
  <g transform="translate(543.75,25)">
    <path d="M-7.5,-5 L7.5,-5 7.5,5 -7.5,5  z" class="primitive"/>
  </g>
</g>
<g stroke-width="0.35" stroke="#000000" fill="#FFFFFF" id="img-a1406fe2-132">
  <g transform="translate(543.75,6.25)">
    <path d="M-7.5,-5 L7.5,-5 7.5,5 -7.5,5  z" class="primitive"/>
  </g>
</g>
<g stroke-width="0.35" stroke="#000000" id="img-a1406fe2-133">
  <g transform="translate(522.5,25)">
    <path d="M0,-5 L0,5  z" class="primitive"/>
  </g>
</g>
<g stroke-width="0.35" stroke="#000000" id="img-a1406fe2-134">
  <g transform="translate(522.5,25)">
    <path d="M-5,0 L5,0  z" class="primitive"/>
  </g>
</g>
<g fill="#000000" fill-opacity="0.000" stroke-width="0.35" stroke="#000000" id="img-a1406fe2-135">
  <g transform="translate(522.5,25)">
    <circle cx="0" cy="0" r="5" class="primitive"/>
  </g>
</g>
<g stroke-width="0" fill="#000000" id="img-a1406fe2-136">
  <g transform="translate(522.5,6.25)">
    <circle cx="0" cy="0" r="1.67" class="primitive"/>
  </g>
</g>
<g stroke-width="0.35" stroke="#000000" fill="#FFFFFF" id="img-a1406fe2-137">
  <g transform="translate(501.25,25)">
    <path d="M-7.5,-5 L7.5,-5 7.5,5 -7.5,5  z" class="primitive"/>
  </g>
</g>
<g stroke-width="0.35" stroke="#000000" fill="#FFFFFF" id="img-a1406fe2-138">
  <g transform="translate(501.25,6.25)">
    <path d="M-5,-5 L5,-5 5,5 -5,5  z" class="primitive"/>
  </g>
</g>
<g stroke-width="0.35" stroke="#000000" id="img-a1406fe2-139">
  <g transform="translate(480,25)">
    <path d="M0,-5 L0,5  z" class="primitive"/>
  </g>
</g>
<g stroke-width="0.35" stroke="#000000" id="img-a1406fe2-140">
  <g transform="translate(480,25)">
    <path d="M-5,0 L5,0  z" class="primitive"/>
  </g>
</g>
<g fill="#000000" fill-opacity="0.000" stroke-width="0.35" stroke="#000000" id="img-a1406fe2-141">
  <g transform="translate(480,25)">
    <circle cx="0" cy="0" r="5" class="primitive"/>
  </g>
</g>
<g stroke-width="0" fill="#000000" id="img-a1406fe2-142">
  <g transform="translate(480,6.25)">
    <circle cx="0" cy="0" r="1.67" class="primitive"/>
  </g>
</g>
<g stroke-width="0.35" stroke="#000000" fill="#FFFFFF" id="img-a1406fe2-143">
  <g transform="translate(458.75,6.25)">
    <path d="M-5,-5 L5,-5 5,5 -5,5  z" class="primitive"/>
  </g>
</g>
<g stroke-width="0.35" stroke="#000000" fill="#FFFFFF" id="img-a1406fe2-144">
  <g transform="translate(416.25,25)">
    <path d="M-7.5,-5 L7.5,-5 7.5,5 -7.5,5  z" class="primitive"/>
  </g>
</g>
<g stroke-width="0.35" stroke="#000000" fill="#FFFFFF" id="img-a1406fe2-145">
  <g transform="translate(437.5,6.25)">
    <path d="M-7.5,-5 L7.5,-5 7.5,5 -7.5,5  z" class="primitive"/>
  </g>
</g>
<g stroke-width="0.35" stroke="#000000" fill="#FFFFFF" id="img-a1406fe2-146">
  <g transform="translate(416.25,6.25)">
    <path d="M-7.5,-5 L7.5,-5 7.5,5 -7.5,5  z" class="primitive"/>
  </g>
</g>
<g stroke-width="0.35" stroke="#000000" id="img-a1406fe2-147">
  <g transform="translate(395,25)">
    <path d="M0,-5 L0,5  z" class="primitive"/>
  </g>
</g>
<g stroke-width="0.35" stroke="#000000" id="img-a1406fe2-148">
  <g transform="translate(395,25)">
    <path d="M-5,0 L5,0  z" class="primitive"/>
  </g>
</g>
<g fill="#000000" fill-opacity="0.000" stroke-width="0.35" stroke="#000000" id="img-a1406fe2-149">
  <g transform="translate(395,25)">
    <circle cx="0" cy="0" r="5" class="primitive"/>
  </g>
</g>
<g stroke-width="0" fill="#000000" id="img-a1406fe2-150">
  <g transform="translate(395,6.25)">
    <circle cx="0" cy="0" r="1.67" class="primitive"/>
  </g>
</g>
<g stroke-width="0.35" stroke="#000000" fill="#FFFFFF" id="img-a1406fe2-151">
  <g transform="translate(373.75,43.75)">
    <path d="M-7.5,-5 L7.5,-5 7.5,5 -7.5,5  z" class="primitive"/>
  </g>
</g>
<g stroke-width="0.35" stroke="#000000" fill="#FFFFFF" id="img-a1406fe2-152">
  <g transform="translate(373.75,25)">
    <path d="M-7.5,-5 L7.5,-5 7.5,5 -7.5,5  z" class="primitive"/>
  </g>
</g>
<g stroke-width="0.35" stroke="#000000" id="img-a1406fe2-153">
  <g transform="translate(352.5,43.75)">
    <path d="M0,-5 L0,5  z" class="primitive"/>
  </g>
</g>
<g stroke-width="0.35" stroke="#000000" id="img-a1406fe2-154">
  <g transform="translate(352.5,43.75)">
    <path d="M-5,0 L5,0  z" class="primitive"/>
  </g>
</g>
<g fill="#000000" fill-opacity="0.000" stroke-width="0.35" stroke="#000000" id="img-a1406fe2-155">
  <g transform="translate(352.5,43.75)">
    <circle cx="0" cy="0" r="5" class="primitive"/>
  </g>
</g>
<g stroke-width="0" fill="#000000" id="img-a1406fe2-156">
  <g transform="translate(352.5,25)">
    <circle cx="0" cy="0" r="1.67" class="primitive"/>
  </g>
</g>
<g stroke-width="0.35" stroke="#000000" fill="#FFFFFF" id="img-a1406fe2-157">
  <g transform="translate(331.25,43.75)">
    <path d="M-7.5,-5 L7.5,-5 7.5,5 -7.5,5  z" class="primitive"/>
  </g>
</g>
<g stroke-width="0.35" stroke="#000000" fill="#FFFFFF" id="img-a1406fe2-158">
  <g transform="translate(331.25,25)">
    <path d="M-5,-5 L5,-5 5,5 -5,5  z" class="primitive"/>
  </g>
</g>
<g stroke-width="0.35" stroke="#000000" id="img-a1406fe2-159">
  <g transform="translate(310,43.75)">
    <path d="M0,-5 L0,5  z" class="primitive"/>
  </g>
</g>
<g stroke-width="0.35" stroke="#000000" id="img-a1406fe2-160">
  <g transform="translate(310,43.75)">
    <path d="M-5,0 L5,0  z" class="primitive"/>
  </g>
</g>
<g fill="#000000" fill-opacity="0.000" stroke-width="0.35" stroke="#000000" id="img-a1406fe2-161">
  <g transform="translate(310,43.75)">
    <circle cx="0" cy="0" r="5" class="primitive"/>
  </g>
</g>
<g stroke-width="0" fill="#000000" id="img-a1406fe2-162">
  <g transform="translate(310,25)">
    <circle cx="0" cy="0" r="1.67" class="primitive"/>
  </g>
</g>
<g stroke-width="0.35" stroke="#000000" fill="#FFFFFF" id="img-a1406fe2-163">
  <g transform="translate(288.75,25)">
    <path d="M-5,-5 L5,-5 5,5 -5,5  z" class="primitive"/>
  </g>
</g>
<g stroke-width="0.35" stroke="#000000" fill="#FFFFFF" id="img-a1406fe2-164">
  <g transform="translate(246.25,43.75)">
    <path d="M-7.5,-5 L7.5,-5 7.5,5 -7.5,5  z" class="primitive"/>
  </g>
</g>
<g stroke-width="0.35" stroke="#000000" fill="#FFFFFF" id="img-a1406fe2-165">
  <g transform="translate(267.5,25)">
    <path d="M-7.5,-5 L7.5,-5 7.5,5 -7.5,5  z" class="primitive"/>
  </g>
</g>
<g stroke-width="0.35" stroke="#000000" fill="#FFFFFF" id="img-a1406fe2-166">
  <g transform="translate(246.25,25)">
    <path d="M-7.5,-5 L7.5,-5 7.5,5 -7.5,5  z" class="primitive"/>
  </g>
</g>
<g stroke-width="0.35" stroke="#000000" id="img-a1406fe2-167">
  <g transform="translate(225,43.75)">
    <path d="M0,-5 L0,5  z" class="primitive"/>
  </g>
</g>
<g stroke-width="0.35" stroke="#000000" id="img-a1406fe2-168">
  <g transform="translate(225,43.75)">
    <path d="M-5,0 L5,0  z" class="primitive"/>
  </g>
</g>
<g fill="#000000" fill-opacity="0.000" stroke-width="0.35" stroke="#000000" id="img-a1406fe2-169">
  <g transform="translate(225,43.75)">
    <circle cx="0" cy="0" r="5" class="primitive"/>
  </g>
</g>
<g stroke-width="0" fill="#000000" id="img-a1406fe2-170">
  <g transform="translate(225,25)">
    <circle cx="0" cy="0" r="1.67" class="primitive"/>
  </g>
</g>
<g stroke-width="0.35" stroke="#000000" fill="#FFFFFF" id="img-a1406fe2-171">
  <g transform="translate(203.75,25)">
    <path d="M-7.5,-5 L7.5,-5 7.5,5 -7.5,5  z" class="primitive"/>
  </g>
</g>
<g stroke-width="0.35" stroke="#000000" fill="#FFFFFF" id="img-a1406fe2-172">
  <g transform="translate(203.75,6.25)">
    <path d="M-7.5,-5 L7.5,-5 7.5,5 -7.5,5  z" class="primitive"/>
  </g>
</g>
<g stroke-width="0.35" stroke="#000000" id="img-a1406fe2-173">
  <g transform="translate(182.5,25)">
    <path d="M0,-5 L0,5  z" class="primitive"/>
  </g>
</g>
<g stroke-width="0.35" stroke="#000000" id="img-a1406fe2-174">
  <g transform="translate(182.5,25)">
    <path d="M-5,0 L5,0  z" class="primitive"/>
  </g>
</g>
<g fill="#000000" fill-opacity="0.000" stroke-width="0.35" stroke="#000000" id="img-a1406fe2-175">
  <g transform="translate(182.5,25)">
    <circle cx="0" cy="0" r="5" class="primitive"/>
  </g>
</g>
<g stroke-width="0" fill="#000000" id="img-a1406fe2-176">
  <g transform="translate(182.5,6.25)">
    <circle cx="0" cy="0" r="1.67" class="primitive"/>
  </g>
</g>
<g stroke-width="0.35" stroke="#000000" fill="#FFFFFF" id="img-a1406fe2-177">
  <g transform="translate(161.25,25)">
    <path d="M-7.5,-5 L7.5,-5 7.5,5 -7.5,5  z" class="primitive"/>
  </g>
</g>
<g stroke-width="0.35" stroke="#000000" fill="#FFFFFF" id="img-a1406fe2-178">
  <g transform="translate(161.25,6.25)">
    <path d="M-5,-5 L5,-5 5,5 -5,5  z" class="primitive"/>
  </g>
</g>
<g stroke-width="0.35" stroke="#000000" id="img-a1406fe2-179">
  <g transform="translate(140,25)">
    <path d="M0,-5 L0,5  z" class="primitive"/>
  </g>
</g>
<g stroke-width="0.35" stroke="#000000" id="img-a1406fe2-180">
  <g transform="translate(140,25)">
    <path d="M-5,0 L5,0  z" class="primitive"/>
  </g>
</g>
<g fill="#000000" fill-opacity="0.000" stroke-width="0.35" stroke="#000000" id="img-a1406fe2-181">
  <g transform="translate(140,25)">
    <circle cx="0" cy="0" r="5" class="primitive"/>
  </g>
</g>
<g stroke-width="0" fill="#000000" id="img-a1406fe2-182">
  <g transform="translate(140,6.25)">
    <circle cx="0" cy="0" r="1.67" class="primitive"/>
  </g>
</g>
<g stroke-width="0.35" stroke="#000000" fill="#FFFFFF" id="img-a1406fe2-183">
  <g transform="translate(118.75,6.25)">
    <path d="M-5,-5 L5,-5 5,5 -5,5  z" class="primitive"/>
  </g>
</g>
<g stroke-width="0.35" stroke="#000000" fill="#FFFFFF" id="img-a1406fe2-184">
  <g transform="translate(76.25,25)">
    <path d="M-7.5,-5 L7.5,-5 7.5,5 -7.5,5  z" class="primitive"/>
  </g>
</g>
<g stroke-width="0.35" stroke="#000000" fill="#FFFFFF" id="img-a1406fe2-185">
  <g transform="translate(97.5,6.25)">
    <path d="M-7.5,-5 L7.5,-5 7.5,5 -7.5,5  z" class="primitive"/>
  </g>
</g>
<g stroke-width="0.35" stroke="#000000" fill="#FFFFFF" id="img-a1406fe2-186">
  <g transform="translate(76.25,6.25)">
    <path d="M-7.5,-5 L7.5,-5 7.5,5 -7.5,5  z" class="primitive"/>
  </g>
</g>
<g stroke-width="0.35" stroke="#000000" id="img-a1406fe2-187">
  <g transform="translate(55,25)">
    <path d="M0,-5 L0,5  z" class="primitive"/>
  </g>
</g>
<g stroke-width="0.35" stroke="#000000" id="img-a1406fe2-188">
  <g transform="translate(55,25)">
    <path d="M-5,0 L5,0  z" class="primitive"/>
  </g>
</g>
<g fill="#000000" fill-opacity="0.000" stroke-width="0.35" stroke="#000000" id="img-a1406fe2-189">
  <g transform="translate(55,25)">
    <circle cx="0" cy="0" r="5" class="primitive"/>
  </g>
</g>
<g stroke-width="0" fill="#000000" id="img-a1406fe2-190">
  <g transform="translate(55,6.25)">
    <circle cx="0" cy="0" r="1.67" class="primitive"/>
  </g>
</g>
<g stroke-width="0.35" stroke="#000000" fill="#FFFFFF" id="img-a1406fe2-191">
  <g transform="translate(33.75,25)">
    <path d="M-5,-5 L5,-5 5,5 -5,5  z" class="primitive"/>
  </g>
</g>
<g stroke-width="0.35" stroke="#000000" fill="#FFFFFF" id="img-a1406fe2-192">
  <g transform="translate(33.75,6.25)">
    <path d="M-5,-5 L5,-5 5,5 -5,5  z" class="primitive"/>
  </g>
</g>
<g font-family="Helvetica Neue" fill="#000000" font-size="3.53" id="img-a1406fe2-193">
  <g transform="translate(883.75,25)">
    <g class="primitive">
      <text text-anchor="middle" dy="0.35em">Rx(-π/2)</text>
    </g>
  </g>
</g>
<g font-family="Helvetica Neue" fill="#000000" font-size="3.53" id="img-a1406fe2-194">
  <g transform="translate(883.75,6.25)">
    <g class="primitive">
      <text text-anchor="middle" dy="0.35em">Rx(π/2)</text>
    </g>
  </g>
</g>
<g font-family="Helvetica Neue" fill="#000000" font-size="3.53" id="img-a1406fe2-195">
  <g transform="translate(841.25,25)">
    <g class="primitive">
      <text text-anchor="middle" dy="0.35em">Rz(0)</text>
    </g>
  </g>
</g>
<g font-family="Helvetica Neue" fill="#000000" font-size="5.64" id="img-a1406fe2-196">
  <g transform="translate(841.25,6.25)">
    <g class="primitive">
      <text text-anchor="middle" dy="0.35em">H</text>
    </g>
  </g>
</g>
<g font-family="Helvetica Neue" fill="#000000" font-size="5.64" id="img-a1406fe2-197">
  <g transform="translate(798.75,6.25)">
    <g class="primitive">
      <text text-anchor="middle" dy="0.35em">H</text>
    </g>
  </g>
</g>
<g font-family="Helvetica Neue" fill="#000000" font-size="3.53" id="img-a1406fe2-198">
  <g transform="translate(756.25,25)">
    <g class="primitive">
      <text text-anchor="middle" dy="0.35em">Rz(0)</text>
    </g>
  </g>
</g>
<g font-family="Helvetica Neue" fill="#000000" font-size="3.53" id="img-a1406fe2-199">
  <g transform="translate(777.5,6.25)">
    <g class="primitive">
      <text text-anchor="middle" dy="0.35em">Rx(-π/2)</text>
    </g>
  </g>
</g>
<g font-family="Helvetica Neue" fill="#000000" font-size="3.53" id="img-a1406fe2-200">
  <g transform="translate(756.25,6.25)">
    <g class="primitive">
      <text text-anchor="middle" dy="0.35em">Rx(0)</text>
    </g>
  </g>
</g>
<g font-family="Helvetica Neue" fill="#000000" font-size="3.53" id="img-a1406fe2-201">
  <g transform="translate(713.75,43.75)">
    <g class="primitive">
      <text text-anchor="middle" dy="0.35em">Rx(-π/2)</text>
    </g>
  </g>
</g>
<g font-family="Helvetica Neue" fill="#000000" font-size="3.53" id="img-a1406fe2-202">
  <g transform="translate(713.75,25)">
    <g class="primitive">
      <text text-anchor="middle" dy="0.35em">Rx(π/2)</text>
    </g>
  </g>
</g>
<g font-family="Helvetica Neue" fill="#000000" font-size="3.53" id="img-a1406fe2-203">
  <g transform="translate(671.25,43.75)">
    <g class="primitive">
      <text text-anchor="middle" dy="0.35em">Rz(0)</text>
    </g>
  </g>
</g>
<g font-family="Helvetica Neue" fill="#000000" font-size="5.64" id="img-a1406fe2-204">
  <g transform="translate(671.25,25)">
    <g class="primitive">
      <text text-anchor="middle" dy="0.35em">H</text>
    </g>
  </g>
</g>
<g font-family="Helvetica Neue" fill="#000000" font-size="5.64" id="img-a1406fe2-205">
  <g transform="translate(628.75,25)">
    <g class="primitive">
      <text text-anchor="middle" dy="0.35em">H</text>
    </g>
  </g>
</g>
<g font-family="Helvetica Neue" fill="#000000" font-size="3.53" id="img-a1406fe2-206">
  <g transform="translate(586.25,43.75)">
    <g class="primitive">
      <text text-anchor="middle" dy="0.35em">Rz(0)</text>
    </g>
  </g>
</g>
<g font-family="Helvetica Neue" fill="#000000" font-size="3.53" id="img-a1406fe2-207">
  <g transform="translate(607.5,25)">
    <g class="primitive">
      <text text-anchor="middle" dy="0.35em">Rx(-π/2)</text>
    </g>
  </g>
</g>
<g font-family="Helvetica Neue" fill="#000000" font-size="3.53" id="img-a1406fe2-208">
  <g transform="translate(586.25,25)">
    <g class="primitive">
      <text text-anchor="middle" dy="0.35em">Rx(0)</text>
    </g>
  </g>
</g>
<g font-family="Helvetica Neue" fill="#000000" font-size="3.53" id="img-a1406fe2-209">
  <g transform="translate(543.75,25)">
    <g class="primitive">
      <text text-anchor="middle" dy="0.35em">Rx(-π/2)</text>
    </g>
  </g>
</g>
<g font-family="Helvetica Neue" fill="#000000" font-size="3.53" id="img-a1406fe2-210">
  <g transform="translate(543.75,6.25)">
    <g class="primitive">
      <text text-anchor="middle" dy="0.35em">Rx(π/2)</text>
    </g>
  </g>
</g>
<g font-family="Helvetica Neue" fill="#000000" font-size="3.53" id="img-a1406fe2-211">
  <g transform="translate(501.25,25)">
    <g class="primitive">
      <text text-anchor="middle" dy="0.35em">Rz(0)</text>
    </g>
  </g>
</g>
<g font-family="Helvetica Neue" fill="#000000" font-size="5.64" id="img-a1406fe2-212">
  <g transform="translate(501.25,6.25)">
    <g class="primitive">
      <text text-anchor="middle" dy="0.35em">H</text>
    </g>
  </g>
</g>
<g font-family="Helvetica Neue" fill="#000000" font-size="5.64" id="img-a1406fe2-213">
  <g transform="translate(458.75,6.25)">
    <g class="primitive">
      <text text-anchor="middle" dy="0.35em">H</text>
    </g>
  </g>
</g>
<g font-family="Helvetica Neue" fill="#000000" font-size="3.53" id="img-a1406fe2-214">
  <g transform="translate(416.25,25)">
    <g class="primitive">
      <text text-anchor="middle" dy="0.35em">Rz(0)</text>
    </g>
  </g>
</g>
<g font-family="Helvetica Neue" fill="#000000" font-size="3.53" id="img-a1406fe2-215">
  <g transform="translate(437.5,6.25)">
    <g class="primitive">
      <text text-anchor="middle" dy="0.35em">Rx(-π/2)</text>
    </g>
  </g>
</g>
<g font-family="Helvetica Neue" fill="#000000" font-size="3.53" id="img-a1406fe2-216">
  <g transform="translate(416.25,6.25)">
    <g class="primitive">
      <text text-anchor="middle" dy="0.35em">Rx(0)</text>
    </g>
  </g>
</g>
<g font-family="Helvetica Neue" fill="#000000" font-size="3.53" id="img-a1406fe2-217">
  <g transform="translate(373.75,43.75)">
    <g class="primitive">
      <text text-anchor="middle" dy="0.35em">Rx(-π/2)</text>
    </g>
  </g>
</g>
<g font-family="Helvetica Neue" fill="#000000" font-size="3.53" id="img-a1406fe2-218">
  <g transform="translate(373.75,25)">
    <g class="primitive">
      <text text-anchor="middle" dy="0.35em">Rx(π/2)</text>
    </g>
  </g>
</g>
<g font-family="Helvetica Neue" fill="#000000" font-size="3.53" id="img-a1406fe2-219">
  <g transform="translate(331.25,43.75)">
    <g class="primitive">
      <text text-anchor="middle" dy="0.35em">Rz(0)</text>
    </g>
  </g>
</g>
<g font-family="Helvetica Neue" fill="#000000" font-size="5.64" id="img-a1406fe2-220">
  <g transform="translate(331.25,25)">
    <g class="primitive">
      <text text-anchor="middle" dy="0.35em">H</text>
    </g>
  </g>
</g>
<g font-family="Helvetica Neue" fill="#000000" font-size="5.64" id="img-a1406fe2-221">
  <g transform="translate(288.75,25)">
    <g class="primitive">
      <text text-anchor="middle" dy="0.35em">H</text>
    </g>
  </g>
</g>
<g font-family="Helvetica Neue" fill="#000000" font-size="3.53" id="img-a1406fe2-222">
  <g transform="translate(246.25,43.75)">
    <g class="primitive">
      <text text-anchor="middle" dy="0.35em">Rz(0)</text>
    </g>
  </g>
</g>
<g font-family="Helvetica Neue" fill="#000000" font-size="3.53" id="img-a1406fe2-223">
  <g transform="translate(267.5,25)">
    <g class="primitive">
      <text text-anchor="middle" dy="0.35em">Rx(-π/2)</text>
    </g>
  </g>
</g>
<g font-family="Helvetica Neue" fill="#000000" font-size="3.53" id="img-a1406fe2-224">
  <g transform="translate(246.25,25)">
    <g class="primitive">
      <text text-anchor="middle" dy="0.35em">Rx(0)</text>
    </g>
  </g>
</g>
<g font-family="Helvetica Neue" fill="#000000" font-size="3.53" id="img-a1406fe2-225">
  <g transform="translate(203.75,25)">
    <g class="primitive">
      <text text-anchor="middle" dy="0.35em">Rx(-π/2)</text>
    </g>
  </g>
</g>
<g font-family="Helvetica Neue" fill="#000000" font-size="3.53" id="img-a1406fe2-226">
  <g transform="translate(203.75,6.25)">
    <g class="primitive">
      <text text-anchor="middle" dy="0.35em">Rx(π/2)</text>
    </g>
  </g>
</g>
<g font-family="Helvetica Neue" fill="#000000" font-size="3.53" id="img-a1406fe2-227">
  <g transform="translate(161.25,25)">
    <g class="primitive">
      <text text-anchor="middle" dy="0.35em">Rz(0)</text>
    </g>
  </g>
</g>
<g font-family="Helvetica Neue" fill="#000000" font-size="5.64" id="img-a1406fe2-228">
  <g transform="translate(161.25,6.25)">
    <g class="primitive">
      <text text-anchor="middle" dy="0.35em">H</text>
    </g>
  </g>
</g>
<g font-family="Helvetica Neue" fill="#000000" font-size="5.64" id="img-a1406fe2-229">
  <g transform="translate(118.75,6.25)">
    <g class="primitive">
      <text text-anchor="middle" dy="0.35em">H</text>
    </g>
  </g>
</g>
<g font-family="Helvetica Neue" fill="#000000" font-size="3.53" id="img-a1406fe2-230">
  <g transform="translate(76.25,25)">
    <g class="primitive">
      <text text-anchor="middle" dy="0.35em">Rz(0)</text>
    </g>
  </g>
</g>
<g font-family="Helvetica Neue" fill="#000000" font-size="3.53" id="img-a1406fe2-231">
  <g transform="translate(97.5,6.25)">
    <g class="primitive">
      <text text-anchor="middle" dy="0.35em">Rx(-π/2)</text>
    </g>
  </g>
</g>
<g font-family="Helvetica Neue" fill="#000000" font-size="3.53" id="img-a1406fe2-232">
  <g transform="translate(76.25,6.25)">
    <g class="primitive">
      <text text-anchor="middle" dy="0.35em">Rx(0)</text>
    </g>
  </g>
</g>
<g font-family="Helvetica Neue" fill="#000000" font-size="5.64" id="img-a1406fe2-233">
  <g transform="translate(33.75,25)">
    <g class="primitive">
      <text text-anchor="middle" dy="0.35em">X</text>
    </g>
  </g>
</g>
<g font-family="Helvetica Neue" fill="#000000" font-size="5.64" id="img-a1406fe2-234">
  <g transform="translate(33.75,6.25)">
    <g class="primitive">
      <text text-anchor="middle" dy="0.35em">X</text>
    </g>
  </g>
</g>
</svg>
